<mxfile host="app.diagrams.net" modified="2023-11-23T19:54:51.940Z" agent="Mozilla/5.0 (Macintosh; Intel Mac OS X 10_15_7) AppleWebKit/537.36 (KHTML, like Gecko) Chrome/119.0.0.0 Safari/537.36" etag="q1zerrjRSAPQwKI-39FJ" version="22.1.3" type="device">
  <diagram name="Page-1" id="r4BUNz97JHdybBVZZjul">
    <mxGraphModel dx="719" dy="647" grid="1" gridSize="10" guides="1" tooltips="1" connect="1" arrows="1" fold="1" page="1" pageScale="1" pageWidth="850" pageHeight="1100" math="0" shadow="0">
      <root>
        <mxCell id="0" />
        <mxCell id="1" parent="0" />
        <mxCell id="tptR05WSzBOkrdh5Fnka-1" value="" style="whiteSpace=wrap;html=1;aspect=fixed;fillColor=#e1d5e7;strokeColor=#9673a6;dashed=1;" parent="1" vertex="1">
          <mxGeometry x="584" y="220.5" width="40" height="40" as="geometry" />
        </mxCell>
        <mxCell id="tptR05WSzBOkrdh5Fnka-2" value="" style="rounded=0;whiteSpace=wrap;html=1;fillColor=#dae8fc;strokeColor=#6c8ebf;dashed=1;" parent="1" vertex="1">
          <mxGeometry x="432" y="199" width="90" height="80" as="geometry" />
        </mxCell>
        <mxCell id="tptR05WSzBOkrdh5Fnka-3" value="" style="shape=flexArrow;endArrow=classic;html=1;rounded=0;fillColor=#f5f5f5;strokeColor=#666666;strokeWidth=2;" parent="1" edge="1">
          <mxGeometry width="50" height="50" relative="1" as="geometry">
            <mxPoint x="269" y="99" as="sourcePoint" />
            <mxPoint x="329" y="99" as="targetPoint" />
          </mxGeometry>
        </mxCell>
        <mxCell id="tptR05WSzBOkrdh5Fnka-4" value="" style="rounded=0;whiteSpace=wrap;html=1;fillColor=#d5e8d4;strokeColor=#82b366;dashed=1;" parent="1" vertex="1">
          <mxGeometry x="160" y="208" width="80" height="70" as="geometry" />
        </mxCell>
        <mxCell id="tptR05WSzBOkrdh5Fnka-5" value="" style="rounded=0;whiteSpace=wrap;html=1;fillColor=#d5e8d4;strokeColor=#82b366;dashed=1;" parent="1" vertex="1">
          <mxGeometry x="432" y="209" width="80" height="70" as="geometry" />
        </mxCell>
        <mxCell id="tptR05WSzBOkrdh5Fnka-6" value="" style="rounded=0;whiteSpace=wrap;html=1;fillColor=#f8cecc;strokeColor=#b85450;dashed=1;" parent="1" vertex="1">
          <mxGeometry x="584" y="230.5" width="30" height="30" as="geometry" />
        </mxCell>
        <mxCell id="tptR05WSzBOkrdh5Fnka-7" value="&lt;font style=&quot;font-size: 12px;&quot;&gt;Gains from Child (Purple)&lt;/font&gt;" style="text;html=1;strokeColor=none;fillColor=none;align=left;verticalAlign=middle;whiteSpace=wrap;rounded=0;" parent="1" vertex="1">
          <mxGeometry x="584" y="299" width="160" height="30" as="geometry" />
        </mxCell>
        <mxCell id="tptR05WSzBOkrdh5Fnka-8" value="&lt;font style=&quot;font-size: 12px;&quot;&gt;&lt;font style=&quot;font-size: 12px;&quot;&gt;Gains from&lt;/font&gt;&lt;font style=&quot;font-size: 12px;&quot;&gt; Parent (Blue)&lt;/font&gt;&lt;/font&gt;" style="text;html=1;strokeColor=none;fillColor=none;align=left;verticalAlign=middle;whiteSpace=wrap;rounded=0;" parent="1" vertex="1">
          <mxGeometry x="432" y="299" width="140" height="30" as="geometry" />
        </mxCell>
        <mxCell id="tptR05WSzBOkrdh5Fnka-9" value="&lt;b&gt;Uniswap v2&lt;/b&gt;" style="text;html=1;strokeColor=none;fillColor=none;align=center;verticalAlign=middle;whiteSpace=wrap;rounded=0;" parent="1" vertex="1">
          <mxGeometry x="160" y="20" width="90" height="30" as="geometry" />
        </mxCell>
        <mxCell id="tptR05WSzBOkrdh5Fnka-10" value="&lt;b style=&quot;border-color: var(--border-color); text-align: left;&quot;&gt;Simple Tree&lt;/b&gt;" style="text;html=1;strokeColor=none;fillColor=none;align=center;verticalAlign=middle;whiteSpace=wrap;rounded=0;" parent="1" vertex="1">
          <mxGeometry x="150" y="178" width="100" height="30" as="geometry" />
        </mxCell>
        <mxCell id="tptR05WSzBOkrdh5Fnka-11" value="" style="shape=cross;whiteSpace=wrap;html=1;fillColor=#f5f5f5;fontColor=#333333;strokeColor=#666666;strokeWidth=2;" parent="1" vertex="1">
          <mxGeometry x="538" y="231" width="30" height="25" as="geometry" />
        </mxCell>
        <mxCell id="tptR05WSzBOkrdh5Fnka-12" value="&lt;font style=&quot;font-size: 10px;&quot;&gt;Some Trading&lt;/font&gt;" style="text;html=1;strokeColor=none;fillColor=none;align=center;verticalAlign=middle;whiteSpace=wrap;rounded=0;" parent="1" vertex="1">
          <mxGeometry x="255" y="56" width="84" height="30" as="geometry" />
        </mxCell>
        <mxCell id="tptR05WSzBOkrdh5Fnka-13" value="" style="rounded=0;whiteSpace=wrap;html=1;fillColor=#f8cecc;strokeColor=#b85450;dashed=1;" parent="1" vertex="1">
          <mxGeometry x="293" y="230" width="30" height="30" as="geometry" />
        </mxCell>
        <mxCell id="tptR05WSzBOkrdh5Fnka-14" value="" style="shape=cross;whiteSpace=wrap;html=1;fillColor=#f5f5f5;fontColor=#333333;strokeColor=#666666;strokeWidth=2;" parent="1" vertex="1">
          <mxGeometry x="251" y="233" width="30" height="25" as="geometry" />
        </mxCell>
        <mxCell id="tptR05WSzBOkrdh5Fnka-15" value="" style="rounded=0;whiteSpace=wrap;html=1;fillColor=#d5e8d4;strokeColor=#82b366;dashed=1;" parent="1" vertex="1">
          <mxGeometry x="165" y="55" width="80" height="70" as="geometry" />
        </mxCell>
        <mxCell id="tptR05WSzBOkrdh5Fnka-16" value="" style="rounded=0;whiteSpace=wrap;html=1;fillColor=#dae8fc;strokeColor=#6c8ebf;dashed=1;" parent="1" vertex="1">
          <mxGeometry x="347" y="50" width="90" height="80" as="geometry" />
        </mxCell>
        <mxCell id="tptR05WSzBOkrdh5Fnka-17" value="" style="rounded=0;whiteSpace=wrap;html=1;fillColor=#d5e8d4;strokeColor=#82b366;dashed=1;" parent="1" vertex="1">
          <mxGeometry x="347" y="60" width="80" height="70" as="geometry" />
        </mxCell>
        <mxCell id="tptR05WSzBOkrdh5Fnka-18" value="" style="shape=flexArrow;endArrow=classic;html=1;rounded=0;strokeColor=#666666;fillColor=#f5f5f5;strokeWidth=2;endWidth=19;endSize=7.17;" parent="1" edge="1">
          <mxGeometry width="50" height="50" relative="1" as="geometry">
            <mxPoint x="344" y="243" as="sourcePoint" />
            <mxPoint x="404" y="243" as="targetPoint" />
          </mxGeometry>
        </mxCell>
        <mxCell id="tptR05WSzBOkrdh5Fnka-19" value="&lt;font style=&quot;font-size: 10px;&quot;&gt;Some Trading&lt;/font&gt;" style="text;html=1;strokeColor=none;fillColor=none;align=center;verticalAlign=middle;whiteSpace=wrap;rounded=0;" parent="1" vertex="1">
          <mxGeometry x="332" y="198" width="84" height="30" as="geometry" />
        </mxCell>
        <mxCell id="tptR05WSzBOkrdh5Fnka-20" value="Gains (Blue)" style="text;html=1;strokeColor=none;fillColor=none;align=left;verticalAlign=middle;whiteSpace=wrap;rounded=0;" parent="1" vertex="1">
          <mxGeometry x="347" y="130" width="140" height="30" as="geometry" />
        </mxCell>
        <mxCell id="tptR05WSzBOkrdh5Fnka-21" value="&lt;font style=&quot;font-size: 12px;&quot;&gt;Parent&lt;/font&gt;" style="text;html=1;strokeColor=none;fillColor=none;align=left;verticalAlign=middle;whiteSpace=wrap;rounded=0;" parent="1" vertex="1">
          <mxGeometry x="158" y="278" width="84" height="30" as="geometry" />
        </mxCell>
        <mxCell id="tptR05WSzBOkrdh5Fnka-22" value="&lt;font style=&quot;font-size: 12px;&quot;&gt;Child&lt;/font&gt;" style="text;html=1;strokeColor=none;fillColor=none;align=left;verticalAlign=middle;whiteSpace=wrap;rounded=0;" parent="1" vertex="1">
          <mxGeometry x="293" y="279" width="84" height="30" as="geometry" />
        </mxCell>
        <mxCell id="tptR05WSzBOkrdh5Fnka-23" value="&lt;font style=&quot;font-size: 12px;&quot;&gt;Parent&lt;/font&gt;" style="text;html=1;strokeColor=none;fillColor=none;align=left;verticalAlign=middle;whiteSpace=wrap;rounded=0;" parent="1" vertex="1">
          <mxGeometry x="432" y="278" width="80" height="31" as="geometry" />
        </mxCell>
        <mxCell id="tptR05WSzBOkrdh5Fnka-24" value="&lt;font style=&quot;font-size: 12px;&quot;&gt;Child&lt;/font&gt;" style="text;html=1;strokeColor=none;fillColor=none;align=left;verticalAlign=middle;whiteSpace=wrap;rounded=0;" parent="1" vertex="1">
          <mxGeometry x="584" y="278" width="84" height="30" as="geometry" />
        </mxCell>
      </root>
    </mxGraphModel>
  </diagram>
</mxfile>
